<?xml version="1.0" encoding="UTF-8"?>
<svg width="16px" height="12px" viewBox="0 0 16 12" version="1.1" xmlns="http://www.w3.org/2000/svg" xmlns:xlink="http://www.w3.org/1999/xlink">
    <!-- Generator: Sketch 54.1 (76490) - https://sketchapp.com -->
    <title>Fill 1</title>
    <desc>Created with Sketch.</desc>
    <g id="Pulse" stroke="none" stroke-width="1" fill="none" fill-rule="evenodd">
        <g id="Pulse-components-2" transform="translate(-828.000000, -979.000000)" fill="#AAAAAA">
            <path d="M828.816748,991 L831.604346,991 C832.065987,991 832.43885,990.67645 832.43885,990.276019 L832.43885,990.060165 C832.43885,989.967876 832.527627,989.89084 832.63416,989.89084 L840.322248,989.89084 C841.050219,989.89084 841.707169,989.490101 841.93799,988.889377 L843.908839,983.758647 C844.281702,982.803405 843.464954,982.156459 842.293098,982.156459 L838.457931,982.156459 C837.996291,982.156459 837.641183,981.832756 837.641183,981.43217 L838.29032,979.708728 C838.29032,979.308143 837.917457,979 837.455816,979 L836.51478,979 C836.212938,979 835.946607,979.138664 835.804564,979.354364 L832.66967,983.142362 C832.527627,983.358062 832.261296,983.496726 831.959454,983.496726 L828.816748,983.52754 C828.355108,983.543101 828,983.851244 828,984.251676 L828,990.276019 C828,990.67645 828.372863,991 828.816748,991" id="Fill-1"></path>
        </g>
    </g>
</svg>