<?xml version="1.0" encoding="UTF-8"?>
<svg width="11px" height="14px" viewBox="0 0 11 14" version="1.1" xmlns="http://www.w3.org/2000/svg" xmlns:xlink="http://www.w3.org/1999/xlink">
    <!-- Generator: Sketch 53.2 (72643) - https://sketchapp.com -->
    <title>Nav Icon Map Selected</title>
    <desc>Created with Sketch.</desc>
    <g id="Nav-Icon-Map-Selected" stroke="none" stroke-width="1" fill="none" fill-rule="evenodd">
        <g id="Group-3" fill="#FFFFFF">
            <g id="Group">
                <g id="Group-2">
                    <path d="M5.5,1.77687524 C3.50676833,1.77687524 1.88485264,3.30587638 1.88485264,5.18492194 C1.88485264,5.86457672 2.17417752,6.57532682 2.79429404,7.42289631 L5.50188485,10.9659855 C6.65258739,9.46719127 7.94276902,7.78271354 8.15104524,7.49663663 L8.1783756,7.45843381 C8.74006169,6.64195964 9.11514736,5.9418708 9.11514736,5.18492194 C9.11514736,3.30587638 7.49323167,1.77687524 5.5,1.77687524 L5.5,1.77687524 Z M5.49811515,14 L1.25436943,8.44726488 C0.709647019,7.70364259 0,6.57443838 0,5.18492194 C0,2.32592969 2.4672721,0 5.5,0 C8.5327279,0 11,2.32592969 11,5.18492194 C11,6.44916868 10.4034441,7.48952913 9.75976696,8.42594238 L9.69850925,8.388628 C9.32719328,9.01941871 8.38476696,10.2445742 6.26336532,13.0049499 L5.49811515,14 Z" id="Fill-1"></path>
                    <path d="M7.33333333,5.25 C7.33333333,6.216 6.51291667,7 5.5,7 C4.48708333,7 3.66666667,6.216 3.66666667,5.25 C3.66666667,4.283125 4.48708333,3.5 5.5,3.5 C6.51291667,3.5 7.33333333,4.283125 7.33333333,5.25" id="Fill-4"></path>
                </g>
            </g>
        </g>
    </g>
</svg>