<?xml version="1.0" encoding="UTF-8" standalone="yes"?>
<svg xmlns="http://www.w3.org/2000/svg" xmlns:xlink="http://www.w3.org/1999/xlink" width="50px" height="50px" viewBox="0 0 50 50" version="1.1" fill="#000000">
  <g id="surface427877">
    <path style="fill:none;stroke-width:2;stroke-linecap:round;stroke-linejoin:round;stroke:#000000;stroke-opacity:1;stroke-miterlimit:10;" d="M 1 1 L 49 49 "/>
    <path style=" stroke:none;fill-rule:nonzero;fill:#000000;fill-opacity:1;" d="M 25 38 C 27.398438 38 29.699219 37.300781 31.699219 36.101562 L 30.199219 34.601562 C 28.699219 35.5 26.898438 36 25 36 C 18.898438 36 14 31.101562 14 25 C 14 23.101562 14.5 21.300781 15.300781 19.800781 L 13.800781 18.300781 C 12.601562 20.300781 11.898438 22.5 11.898438 25 C 12 32.199219 17.800781 38 25 38 Z M 25 16.5 C 22.398438 16.5 20.101562 17.699219 18.5 19.5 L 19.898438 20.898438 C 21.101562 19.398438 22.898438 18.5 25 18.5 C 28.601562 18.5 31.5 21.398438 31.5 25 C 31.5 27.101562 30.5 28.898438 29.101562 30.101562 L 30.5 31.5 C 32.300781 29.898438 33.5 27.601562 33.5 25 C 33.5 20.300781 29.699219 16.5 25 16.5 Z M 25 16.5 "/>
    <path style=" stroke:none;fill-rule:nonzero;fill:#000000;fill-opacity:1;" d="M 9 10 L 14.601562 10 L 16.699219 6.5 C 17.199219 5.601562 18.199219 5 19.300781 5 L 30.800781 5 C 31.800781 5 32.800781 5.601562 33.398438 6.5 L 35.5 10 L 44.398438 10 C 46.398438 10 48.101562 11.699219 48.101562 13.699219 L 48.101562 36.300781 C 48.101562 38.300781 46.398438 40 44.398438 40 L 39 40 L 41 42 L 44.300781 42 C 47.398438 42 50 39.398438 50 36.300781 L 50 13.699219 C 50 10.601562 47.398438 8 44.300781 8 L 36.601562 8 L 35 5.398438 C 34.101562 3.898438 32.5 3 30.699219 3 L 19.300781 3 C 17.601562 3 15.898438 3.898438 15 5.398438 L 13.398438 8 L 7 8 Z M 25 33.5 C 26.199219 33.5 27.300781 33.300781 28.300781 32.800781 L 26.699219 31.199219 C 26.101562 31.398438 25.5 31.5 24.898438 31.5 C 21.300781 31.5 18.398438 28.601562 18.398438 25 C 18.398438 24.398438 18.5 23.800781 18.699219 23.199219 L 17.101562 21.601562 C 16.699219 22.601562 16.398438 23.800781 16.398438 24.898438 C 16.5 29.699219 20.300781 33.5 25 33.5 Z M 25 33.5 "/>
    <path style=" stroke:none;fill-rule:nonzero;fill:#000000;fill-opacity:1;" d="M 35.5 40 L 5.699219 40 C 3.699219 40 2 38.300781 2 36.300781 L 2 13.699219 C 2 11.699219 3.601562 10.101562 5.5 10 L 3.800781 8.300781 C 1.601562 9.101562 0 11.199219 0 13.699219 L 0 36.300781 C 0 39.398438 2.601562 42 5.699219 42 L 37.5 42 Z M 38 25 C 38 17.800781 32.199219 12 25 12 C 21.199219 12 17.699219 13.699219 15.300781 16.300781 L 16.699219 17.699219 C 18.699219 15.398438 21.699219 13.898438 25 13.898438 C 31.101562 13.898438 36 18.800781 36 24.898438 C 36 28.199219 34.5 31.101562 32.199219 33.199219 L 33.601562 34.601562 C 36.300781 32.300781 38 28.800781 38 25 Z M 38 25 "/>
  </g>
</svg>
