<?xml version="1.0" encoding="UTF-8"?>
<svg width="14px" height="14px" viewBox="0 0 14 14" version="1.1" xmlns="http://www.w3.org/2000/svg" xmlns:xlink="http://www.w3.org/1999/xlink">
    <!-- Generator: Sketch 53.2 (72643) - https://sketchapp.com -->
    <title>Nav Icon Scoreborad Active</title>
    <desc>Created with Sketch.</desc>
    <g id="Nav-Icon-Scoreborad-Active" stroke="none" stroke-width="1" fill="none" fill-rule="evenodd">
        <path d="M2.26534583,1.75622192 L1.96910459,0 L12.0111281,0 L11.7105046,1.75622192 L13.9263485,1.75622192 L13.9884714,2.5645249 C14.0068457,2.80334169 14.1302164,4.93782141 12.8466363,6.32260886 C12.3043954,6.90859573 11.581283,7.26765382 10.73414,7.37695428 C10.3570289,8.83764341 9.24774566,9.9435761 7.86403574,10.2775182 L7.86403574,12.2504265 L10.4889439,12.2504265 L10.4889439,14 L3.48918888,14 L3.48918888,12.2504265 L6.114097,12.2504265 L6.114097,10.2806835 C4.72570527,9.95100391 3.61154965,8.84435733 3.22885355,7.37211919 C2.39750324,7.25735298 1.68770235,6.90022794 1.15249568,6.32260886 C-0.130209423,4.93782141 -0.00683874197,2.80334169 0.0115356148,2.5645249 L0.0736584403,1.75622192 L2.26534583,1.75622192 Z M2.56046562,3.50579546 L1.79122332,3.50579546 C1.86122087,4.05078762 2.03971462,4.70862727 2.44045059,5.13814758 C2.57091867,5.27793035 2.72096028,5.38924848 2.8922537,5.4727515 L2.56046562,3.50579546 Z M11.4110192,3.50579546 L11.0714403,5.48959241 C11.2597891,5.40356817 11.423257,5.28520873 11.5639312,5.13377364 C11.9611673,4.70425334 12.1379111,4.04728847 12.2087837,3.50579546 L11.4110192,3.50579546 Z M4.03840716,1.74957354 L4.86437824,6.64750467 C5.04024709,7.80397278 5.93009094,8.63239585 6.98267909,8.63239585 C8.03439228,8.63239585 8.92336116,7.80397278 9.09573013,6.66237605 L9.9365757,1.74957354 L4.03840716,1.74957354 Z" id="Combined-Shape" fill="#fff"></path>
    </g>
</svg>