<?xml version="1.0" encoding="UTF-8"?>
<svg width="24px" height="24px" viewBox="0 0 24 24" version="1.1" xmlns="http://www.w3.org/2000/svg" xmlns:xlink="http://www.w3.org/1999/xlink">
    <!-- Generator: Sketch 53.2 (72643) - https://sketchapp.com -->
    <title>Social – Twitter Icon Selected</title>
    <desc>Created with Sketch.</desc>
    <g id="Social-–-Twitter-Icon-Selected" stroke="none" stroke-width="1" fill="none" fill-rule="evenodd">
        <g id="Group">
            <rect id="Rectangle" fill="#000000" x="0" y="0" width="24" height="24" rx="2"></rect>
            <path d="M19.2,7.42074906 C18.67035,7.66161655 18.1011,7.82450204 17.50305,7.89786972 C18.11325,7.52272552 18.5817,6.929324 18.8022,6.22194878 C18.2316,6.56894563 17.5989,6.82088749 16.92615,6.95700992 C16.3875,6.36822272 15.61935,6 14.76975,6 C13.13805,6 11.8155,7.35661001 11.8155,9.02930093 C11.8155,9.2669384 11.84115,9.49811582 11.892,9.7200646 C9.43635,9.59317081 7.2597,8.38744905 5.8026,6.55464124 C5.54835,7.00223025 5.40255,7.52272552 5.40255,8.07782819 C5.40255,9.12897024 5.9241,10.0559871 6.71655,10.5990925 C6.23235,10.5834038 5.77695,10.4472814 5.3787,10.2202569 C5.37825,10.2327155 5.37825,10.2456356 5.37825,10.2580943 C5.37825,11.7259094 6.3966,12.9505499 7.7484,13.2287934 C7.50045,13.2980082 7.23945,13.3349227 6.9699,13.3349227 C6.77955,13.3349227 6.5946,13.316004 6.41415,13.2809352 C6.7899,14.4843498 7.88115,15.3601477 9.174,15.3846036 C8.16285,16.1971853 6.8889,16.6812274 5.5047,16.6812274 C5.2662,16.6812274 5.0313,16.6673844 4.8,16.6387757 C6.10725,17.4984234 7.6602,18 9.32835,18 C14.763,18 17.73435,13.3838345 17.73435,9.3809121 C17.73435,9.24940398 17.73165,9.11881873 17.7258,8.98869492 C18.30315,8.56187034 18.804,8.02799354 19.2,7.42074906" id="Fill-1" fill="#FFFFFF"></path>
        </g>
    </g>
</svg>