<?xml version="1.0" encoding="UTF-8"?>
<svg width="24px" height="24px" viewBox="0 0 24 24" version="1.1" xmlns="http://www.w3.org/2000/svg" xmlns:xlink="http://www.w3.org/1999/xlink">
    <!-- Generator: Sketch 53.2 (72643) - https://sketchapp.com -->
    <title>Social – Youtube Icon Selected</title>
    <desc>Created with Sketch.</desc>
    <g id="Social-–-Youtube-Icon-Selected" stroke="none" stroke-width="1" fill="none" fill-rule="evenodd">
        <g id="Group">
            <rect id="Rectangle-Copy" fill="#000000" x="0" y="0" width="24" height="24" rx="2"></rect>
            <path d="M19.13895,7.15591398 C18.7084875,6.31612903 18.248775,6.15860215 17.3157,6.09462366 C16.3821375,6.0311828 14.036775,6 12,6 C9.9627375,6 7.6178625,6.0311828 6.6838125,6.09462366 C5.7507375,6.15860215 5.291025,6.31612903 4.8605625,7.15591398 C4.4301,7.99516129 4.2,9.45107527 4.2,11.9973118 L4.2,12 L4.2,12.0026882 C4.2,14.5489247 4.4301,16.0048387 4.8605625,16.844086 C5.291025,17.6833333 5.7507375,17.8413978 6.6838125,17.9048387 C7.6178625,17.9677419 9.9627375,18 12,18 C14.036775,18 16.3821375,17.9677419 17.3157,17.9048387 C18.248775,17.8413978 18.7084875,17.6833333 19.13895,16.844086 C19.5694125,16.0048387 19.8,14.5489247 19.8,12.0026882 L19.8,12 L19.8,11.9973118 C19.8,9.45107527 19.5694125,7.99516129 19.13895,7.15591398 L19.13895,7.15591398 Z" id="Path" fill="#FFFFFF"></path>
            <polygon id="Path" fill="#000000" points="10.32735 15 10.32735 8.4 15.05235 11.7"></polygon>
        </g>
    </g>
</svg>