<?xml version="1.0" encoding="UTF-8"?>
<svg width="82px" height="30px" viewBox="0 0 82 30" version="1.1" xmlns="http://www.w3.org/2000/svg" xmlns:xlink="http://www.w3.org/1999/xlink">
    <!-- Generator: Sketch 53.2 (72643) - https://sketchapp.com -->
    <title>logo white</title>
    <desc>Created with Sketch.</desc>
    <g id="logo-white" stroke="none" stroke-width="1" fill="none" fill-rule="evenodd">
        <path d="M69.4749357,28.7588728 L64.8713926,28.7588728 L68.8060312,20.6347042 L61.5099495,5.69808516 L66.4235329,5.69808516 L70.9981695,15.968656 L75.3896725,5.69808516 L79.8925715,5.69808516 L69.4749357,28.7588728 Z M53.2068977,22.4155759 L48.9789633,22.4155759 L41.6114965,5.69808516 L46.5763714,5.69808516 L51.1781519,17.3997585 L55.4959786,5.69808516 L60.0993454,5.69842051 L53.2068977,22.4155759 Z M39.9469027,22.4160789 L35.4993491,22.4160789 L35.4993491,19.6471009 L35.337543,19.8808393 C35.3371905,19.8821807 35.0435423,20.3074034 34.4788072,20.8287037 C33.9138958,21.3505069 33.0812463,21.9631898 32.0141719,22.3287204 C31.0473891,22.6855319 30.1140955,22.8587398 29.2003668,22.8587398 C26.5395548,22.8491823 24.57532,22.0289183 23.0912158,20.3647481 C21.7045831,18.7872657 20.9947865,16.745157 20.9919663,14.1356376 C20.9965491,11.7546586 21.7860149,9.74859992 23.3973784,8.00243687 C25.0806557,6.20664215 27.0561711,5.34948971 29.5014178,5.34127366 C31.3015551,5.34529785 33.0523398,5.95026772 34.6129406,7.32972647 L35.5894177,8.24657105 L35.5894177,5.69808516 L39.9469027,5.69808516 L39.9469027,22.4160789 Z M20.5444437,22.4155759 L2.26334701,22.4155759 L12.8508969,5.02906359 L2.71545239,5.02906359 L2.71545239,1.24079187 L20.4282887,1.24079187 L9.79526389,18.7993382 L20.5444437,18.7993382 L20.5444437,22.4155759 Z M74.5117244,4.45779631 L74.4893395,4.50977543 L70.9736694,12.7320337 L67.2880853,4.45779631 L61.5496078,4.45779631 L61.5496078,4.45729329 L54.5711455,4.45729329 L51.1395511,13.7578667 L47.4811109,4.45729329 L34.2852743,4.45729329 L34.2852743,5.60904996 C32.8244364,4.61742251 31.2167744,4.09964341 29.5128747,4.10014644 L29.4737451,4.10014644 C26.7013609,4.09930806 24.2936575,5.1549872 22.419315,7.18133447 C20.6094834,9.12837166 19.6865892,11.4761511 19.6871179,14.1175287 C19.6871179,14.1218882 19.6867654,14.1294336 19.6874705,14.1403324 C19.6872942,14.1410031 19.6871179,14.145195 19.6871179,14.1495545 C19.6871179,15.3724052 19.837996,16.5107479 20.1395758,17.5580433 L12.0520893,17.5580433 L22.6849379,0 L1.41078027,0 L1.41078027,6.26985546 L10.588255,6.26985546 L5.68434189e-14,23.6568707 L21.848587,23.6568707 L21.848587,20.8719637 C21.927375,20.970221 22.0084543,21.0674722 22.0927063,21.1630468 C23.8073578,23.1125991 26.2335685,24.1007054 29.1654674,24.099364 L29.2003668,24.099364 C30.2887686,24.099364 31.3880985,23.8911121 32.4854896,23.486178 C33.1198472,23.2499245 33.6911039,22.968902 34.1955583,22.6394214 L34.1955583,23.6568707 L41.2515748,23.6568707 L41.2515748,8.09029835 L48.1114146,23.6568707 L54.0964789,23.6568707 L60.8463328,7.28378363 L67.3686358,20.6368839 L62.8331288,30 L70.3342003,30 L81.8241984,4.45779631 L74.5117244,4.45779631 Z M33.3308297,16.894052 C32.5466516,17.6187415 31.6369768,17.9666663 30.4468733,17.9727026 C29.3011872,17.9624744 28.48775,17.6073397 27.7918779,16.8357013 C27.1368979,16.0934059 26.8083504,15.2012095 26.8039439,14.0499558 C26.8104655,12.9317341 27.1594591,12.0992298 27.8770112,11.4005299 L27.8771874,11.4006975 C28.6017898,10.7112197 29.4681048,10.3768766 30.6426975,10.3698342 C31.8081247,10.3777149 32.6661555,10.7237953 33.3962219,11.4531797 C34.1213531,12.195475 34.4749295,13.0683889 34.4805698,14.2074023 C34.4731669,15.3152282 34.1067236,16.159302 33.3308297,16.894052 L33.3308297,16.894052 Z M30.6689601,9.12921003 L30.6176687,9.12921003 C29.1762192,9.12870701 27.9034501,9.60205234 26.9491817,10.528119 C25.9885679,11.4449636 25.4989193,12.6582569 25.4992718,14.0284935 C25.4992718,14.0367096 25.4998006,14.0445903 25.4998006,14.0519679 C25.4992718,14.0544831 25.4998006,14.0605193 25.4998006,14.0658849 C25.4992718,15.4423255 25.930226,16.6663499 26.7944259,17.635509 L26.7944259,17.6356767 C27.6970503,18.6678814 28.9677044,19.2143328 30.4158516,19.2134944 C30.4227257,19.2134944 30.4301286,19.2136621 30.4378841,19.2136621 C30.441938,19.2136621 30.4458157,19.2136621 30.450046,19.2134944 C30.4546287,19.2129914 30.4620316,19.2129914 30.4706683,19.2129914 C31.9355602,19.2138298 33.2412899,18.7250584 34.246321,17.7778647 C35.257345,16.8398931 35.7850656,15.6101678 35.7847131,14.2300383 L35.7847131,14.186443 C35.7850656,12.7984328 35.2989422,11.5626712 34.3462601,10.6037403 C33.3972795,9.63240144 32.1172837,9.12837166 30.6689601,9.12921003 L30.6689601,9.12921003 Z" id="Fill-4" fill="#FFFFFF"></path>
    </g>
</svg>