<?xml version="1.0" encoding="utf-8"?>
<!-- Generator: Adobe Illustrator 19.0.0, SVG Export Plug-In . SVG Version: 6.00 Build 0)  -->
<svg version="1.1" id="Layer_1" xmlns="http://www.w3.org/2000/svg" xmlns:xlink="http://www.w3.org/1999/xlink" x="0px" y="0px"
	 viewBox="43 285.1 495.3 221.9" style="enable-background:new 43 285.1 495.3 221.9;" xml:space="preserve">
<style type="text/css">
	.st0{fill:#FFFFFF;}
</style>
<path class="st0" d="M486.7,340l-22.5,55.3L440.8,340h-67.1l-22,62.6L328.3,340h-68.6v11c-9.4-8.7-19.7-13.1-30.8-13.1
	c-14.8,0-27.3,5.7-37.4,17.1c-9.7,11-14.6,24-14.6,39c0,9,1.3,17,3.9,24.1h-57.3l60.3-104.7H73.2v30H128L67.9,447.1h113.8v-26.6
	c2,4.8,4.7,9.1,7.9,13c9.1,10.8,21.6,16.2,37.5,16.2c5.7,0,11.4-1.1,17.3-3.4c6.2-2.4,11.2-5.7,14.7-9.7v10.5h32.6V340.2l45.1,106.9
	h29l40.5-103.3l41.4,89l-24,52.1H458L520,340L486.7,340L486.7,340z M253.2,413.1c-5.1,5-11.4,7.5-19,7.5c-7.4,0-13.3-2.7-17.9-8.1
	c-4.3-5.1-6.5-11.4-6.5-19c0-7.4,2.4-13.6,7.2-18.4s10.9-7.2,18.3-7.2c7.4,0,13.5,2.5,18.3,7.6c4.8,5.1,7.2,11.4,7.2,19
	C260.8,401.8,258.3,408.1,253.2,413.1z"/>
<path d="M235.5,364.1h-0.3c-8.2,0-15.4,2.8-20.8,8.3c-5.5,5.5-8.2,12.7-8.2,20.9v0.1v0.1c0,8.2,2.4,15.5,7.3,21.3l0,0
	c5.1,6.2,12.3,9.4,20.5,9.4h0.1c0,0,0,0,0.1,0h0.1c8.3,0,15.7-2.9,21.4-8.6c5.7-5.6,8.7-12.9,8.7-21.2v-0.3c0-8.3-2.8-15.6-8.2-21.4
	C251,367.1,243.7,364.1,235.5,364.1z M250.6,410.4c-4.4,4.3-9.6,6.4-16.4,6.4c-6.5-0.1-11.1-2.2-15.1-6.8c-3.7-4.4-5.6-9.7-5.6-16.6
	c0-6.7,2-11.6,6.1-15.8l0,0c4.1-4.1,9-6.1,15.7-6.1c6.6,0,11.5,2.1,15.6,6.5c4.1,4.4,6.1,9.6,6.2,16.4
	C257.1,401,255,406.1,250.6,410.4z M484.2,336.3l-0.1,0.3l-19.9,49l-20.9-49.3h-32.6l0,0h-39.6l-19.5,55.5l-20.8-55.5h-74.9v6.9
	c-8.3-5.9-17.4-9-27.1-9h-0.1c-15.7,0-29.4,6.3-40,18.4c-10.3,11.6-15.5,25.6-15.5,41.4v0.1c0,0,0,0,0,0.1c0,7.3,0.9,14.1,2.6,20.3
	h-45.9l60.3-104.7H69.5v37.4h52.1L61.5,450.8h124v-16.6c0.4,0.6,0.9,1.2,1.4,1.7c9.7,11.6,23.5,17.5,40.1,17.5h0.2
	c6.2,0,12.4-1.2,18.6-3.7c3.6-1.4,6.8-3.1,9.7-5.1v6.1h40v-92.8l38.9,92.8h34l38.3-97.6l37,79.6L418,488.4h42.6l65.1-152.2H484.2z
	 M178.1,443.4H74.3l60.1-103.7H76.9v-22.6h100.5l-60.3,104.7h61L178.1,443.4L178.1,443.4z M288.1,443.4h-25.2v-16.5l-0.9,1.4
	c0,0-1.7,2.5-4.9,5.7c-3.2,3.1-7.9,6.8-14,8.9c-5.5,2.1-10.8,3.2-16,3.2c-15.1-0.1-26.2-4.9-34.7-14.9c-7.9-9.4-11.9-21.6-11.9-37.2
	c0-14.2,4.5-26.2,13.6-36.6c9.5-10.7,20.8-15.8,34.6-15.9c10.2,0,20.1,3.6,29,11.9l5.5,5.5v-15.2h24.7v99.7L288.1,443.4L288.1,443.4
	z M363.4,443.4h-24l-41.8-99.7h28.1l26.1,69.8l24.5-69.8h26.1L363.4,443.4z M455.7,481.1h-26.1l22.3-48.5l-41.4-89.1h27.9l26,61.3
	l24.9-61.3h25.5L455.7,481.1z"/>
<g>
	<circle cx="492.7" cy="394.5" r="1.3"/>
	<circle cx="492.7" cy="387.3" r="1.2"/>
	<circle cx="486.2" cy="409.6" r="1.5"/>
	<circle cx="486.2" cy="402.1" r="1.4"/>
	<circle cx="486.2" cy="394.5" r="1.3"/>
	<circle cx="486.2" cy="387.3" r="1.2"/>
	<circle cx="479.7" cy="424.8" r="1.8"/>
	<path d="M481.4,417.2c0,0.9-0.7,1.6-1.6,1.6s-1.6-0.7-1.6-1.6c0-0.9,0.7-1.6,1.6-1.6C480.6,415.6,481.4,416.3,481.4,417.2z"/>
	<circle cx="479.7" cy="409.6" r="1.5"/>
	<circle cx="479.7" cy="402.1" r="1.4"/>
	<circle cx="479.7" cy="394.5" r="1.3"/>
	<circle cx="479.7" cy="387.3" r="1.2"/>
	<circle cx="473.2" cy="440" r="2.2"/>
	<circle cx="473.2" cy="432.4" r="2"/>
	<circle cx="473.2" cy="424.8" r="1.8"/>
	<circle cx="473.2" cy="417.2" r="1.7"/>
	<circle cx="473.2" cy="409.6" r="1.5"/>
	<circle cx="473.2" cy="402.1" r="1.4"/>
	<circle cx="473.2" cy="394.5" r="1.3"/>
	<circle cx="473.2" cy="387.3" r="1.2"/>
	<circle cx="466.7" cy="455.1" r="2.5"/>
	<circle cx="466.7" cy="447.5" r="2.4"/>
	<circle cx="466.7" cy="440" r="2.2"/>
	<circle cx="466.7" cy="432.4" r="2"/>
	<circle cx="466.7" cy="424.8" r="1.8"/>
	<circle cx="466.7" cy="417.2" r="1.7"/>
	<path d="M468.2,409.6c0,0.8-0.7,1.5-1.5,1.5c-0.8,0-1.5-0.7-1.5-1.5s0.7-1.5,1.5-1.5C467.6,408.1,468.2,408.8,468.2,409.6z"/>
	<circle cx="466.7" cy="402.1" r="1.4"/>
	<circle cx="466.7" cy="394.5" r="1.3"/>
	<circle cx="466.7" cy="387.3" r="1.2"/>
	<circle cx="460.2" cy="470.3" r="2.9"/>
	<circle cx="460.2" cy="462.6" r="2.7"/>
	<circle cx="460.2" cy="455.1" r="2.5"/>
	<circle cx="460.2" cy="447.5" r="2.4"/>
	<circle cx="460.2" cy="440" r="2.2"/>
	<circle cx="460.2" cy="432.4" r="2"/>
	<circle cx="460.2" cy="424.8" r="1.8"/>
	<circle cx="460.2" cy="417.2" r="1.7"/>
	<path d="M461.8,409.6c0,0.8-0.7,1.5-1.5,1.5c-0.8,0-1.5-0.7-1.5-1.5s0.7-1.5,1.5-1.5C461.1,408.1,461.8,408.8,461.8,409.6z"/>
	<circle cx="460.2" cy="402.1" r="1.4"/>
	<circle cx="460.2" cy="394.5" r="1.3"/>
	<circle cx="460.2" cy="387.3" r="1.2"/>
	<circle cx="453.8" cy="477.8" r="3.1"/>
	<circle cx="453.8" cy="470.3" r="2.9"/>
	<circle cx="453.8" cy="462.6" r="2.7"/>
	<circle cx="453.8" cy="455.1" r="2.5"/>
	<circle cx="453.8" cy="447.5" r="2.4"/>
	<circle cx="453.8" cy="440" r="2.2"/>
	<circle cx="453.8" cy="432.4" r="2"/>
	<circle cx="367.5" cy="432.4" r="1.9"/>
	<circle cx="453.8" cy="424.8" r="1.8"/>
	<circle cx="453.8" cy="417.2" r="1.7"/>
	<path d="M455.3,409.6c0,0.8-0.7,1.5-1.5,1.5c-0.8,0-1.5-0.7-1.5-1.5s0.7-1.5,1.5-1.5C454.6,408.1,455.3,408.8,455.3,409.6z"/>
	<circle cx="453.8" cy="402.1" r="1.4"/>
	<circle cx="453.8" cy="394.5" r="1.3"/>
	<circle cx="453.8" cy="387.3" r="1.2"/>
	<circle cx="447.3" cy="477.8" r="3.1"/>
	<circle cx="447.3" cy="470.3" r="2.9"/>
	<path d="M449.9,462.6c0,1.5-1.2,2.6-2.6,2.6c-1.4,0-2.6-1.2-2.6-2.6c0-1.4,1.2-2.6,2.6-2.6C448.7,460.1,449.9,461.1,449.9,462.6z"
		/>
	<circle cx="447.3" cy="455.1" r="2.5"/>
	<circle cx="447.3" cy="447.5" r="2.4"/>
	<circle cx="447.3" cy="440" r="2.2"/>
	<circle cx="447.3" cy="424.8" r="1.8"/>
	<circle cx="447.3" cy="417.2" r="1.7"/>
	<circle cx="447.3" cy="409.6" r="1.5"/>
	<circle cx="447.3" cy="402.1" r="1.4"/>
	<circle cx="447.3" cy="394.5" r="1.3"/>
	<circle cx="447.3" cy="387.3" r="1.2"/>
	<circle cx="440.8" cy="477.8" r="3.1"/>
	<circle cx="440.8" cy="470.3" r="2.9"/>
	<circle cx="440.8" cy="462.6" r="2.7"/>
	<circle cx="440.8" cy="455.1" r="2.5"/>
	<circle cx="440.8" cy="409.6" r="1.5"/>
	<circle cx="440.8" cy="402.1" r="1.4"/>
	<circle cx="440.8" cy="394.5" r="1.3"/>
	<circle cx="440.8" cy="387.3" r="1.2"/>
	<circle cx="434.3" cy="477.8" r="3.1"/>
	<circle cx="434.3" cy="470.3" r="2.9"/>
	<circle cx="434.3" cy="394.5" r="1.3"/>
	<circle cx="434.3" cy="387.3" r="1.2"/>
	<circle cx="427.8" cy="387.3" r="1.2"/>
	<g>
		<circle cx="386.5" cy="387.3" r="1.2"/>
	</g>
	<g>
		<circle cx="380.6" cy="402.1" r="1.4"/>
		<circle cx="380.6" cy="394.5" r="1.3"/>
		<circle cx="380.6" cy="387.3" r="1.2"/>
	</g>
	<g>
		<circle cx="374.1" cy="424.8" r="1.8"/>
		<circle cx="374.1" cy="417.2" r="1.7"/>
		<circle cx="374.1" cy="409.6" r="1.5"/>
		<circle cx="374.1" cy="402.1" r="1.4"/>
		<circle cx="374.1" cy="394.5" r="1.3"/>
		<circle cx="374.1" cy="387.3" r="1.2"/>
	</g>
	<g>
		<circle cx="367.6" cy="432.4" r="1.9"/>
		<circle cx="367.6" cy="424.8" r="1.8"/>
		<circle cx="367.6" cy="417.2" r="1.7"/>
		<path d="M369.1,409.6c0,0.8-0.7,1.5-1.5,1.5c-0.8,0-1.5-0.7-1.5-1.5s0.7-1.5,1.5-1.5C368.5,408.1,369.1,408.8,369.1,409.6z"/>
		<circle cx="367.6" cy="402.1" r="1.4"/>
		<circle cx="367.6" cy="394.5" r="1.3"/>
		<circle cx="367.6" cy="387.3" r="1.2"/>
	</g>
	<g>
		<circle cx="361.1" cy="440" r="2.2"/>
		<circle cx="361.1" cy="432.4" r="2"/>
		<circle cx="361.1" cy="424.8" r="1.8"/>
		<circle cx="361.1" cy="417.2" r="1.7"/>
		<circle cx="361.1" cy="409.6" r="1.5"/>
		<circle cx="361.1" cy="402.1" r="1.4"/>
		<circle cx="361.1" cy="394.5" r="1.3"/>
		<circle cx="361.1" cy="387.3" r="1.2"/>
	</g>
	<g>
		<circle cx="354.6" cy="440" r="2.2"/>
		<circle cx="354.6" cy="432.4" r="2"/>
		<circle cx="354.6" cy="424.8" r="1.8"/>
		<circle cx="354.6" cy="417.2" r="1.7"/>
		<circle cx="354.6" cy="409.6" r="1.5"/>
		<circle cx="354.6" cy="402.1" r="1.4"/>
		<circle cx="354.6" cy="394.5" r="1.3"/>
		<circle cx="354.6" cy="387.3" r="1.2"/>
	</g>
	<g>
		<circle cx="348.2" cy="440" r="2.2"/>
		<circle cx="348.2" cy="432.4" r="2"/>
		<circle cx="348.2" cy="424.8" r="1.8"/>
		<circle cx="348.2" cy="417.2" r="1.7"/>
		<circle cx="348.2" cy="409.6" r="1.5"/>
		<circle cx="348.2" cy="402.1" r="1.4"/>
		<circle cx="348.2" cy="394.5" r="1.3"/>
		<circle cx="348.2" cy="387.3" r="1.2"/>
	</g>
	<g>
		<circle cx="341.7" cy="440" r="2.2"/>
		<circle cx="341.7" cy="432.4" r="2"/>
		<circle cx="341.7" cy="424.8" r="1.8"/>
		<circle cx="341.7" cy="417.2" r="1.7"/>
		<circle cx="341.7" cy="409.6" r="1.5"/>
		<circle cx="341.7" cy="402.1" r="1.4"/>
		<circle cx="341.7" cy="394.5" r="1.3"/>
		<circle cx="341.7" cy="387.3" r="1.2"/>
	</g>
	<g>
		<circle cx="335.2" cy="440" r="2.1"/>
		<circle cx="335.2" cy="432.4" r="2"/>
		<circle cx="335.2" cy="424.8" r="1.8"/>
		<circle cx="335.2" cy="417.2" r="1.7"/>
		<circle cx="335.2" cy="409.6" r="1.5"/>
		<circle cx="335.2" cy="402.1" r="1.4"/>
		<circle cx="335.2" cy="394.5" r="1.3"/>
		<circle cx="335.2" cy="387.3" r="1.2"/>
	</g>
	<g>
		<circle cx="328.7" cy="424.8" r="1.8"/>
		<circle cx="328.7" cy="417.2" r="1.7"/>
		<circle cx="328.7" cy="409.6" r="1.5"/>
		<circle cx="328.7" cy="402.1" r="1.4"/>
		<circle cx="328.7" cy="394.5" r="1.3"/>
		<circle cx="328.7" cy="387.3" r="1.2"/>
	</g>
	<g>
		<circle cx="322.2" cy="409.6" r="1.5"/>
		<circle cx="322.2" cy="402.1" r="1.4"/>
		<circle cx="322.2" cy="394.5" r="1.3"/>
		<circle cx="322.2" cy="387.3" r="1.2"/>
	</g>
	<g>
		<circle cx="315.7" cy="387.3" r="1.2"/>
	</g>
	<g>
		<circle cx="291.8" cy="440" r="2.1"/>
		<circle cx="291.8" cy="432.4" r="1.9"/>
		<circle cx="291.8" cy="424.8" r="1.8"/>
		<circle cx="291.8" cy="417.2" r="1.6"/>
		<circle cx="291.8" cy="409.6" r="1.5"/>
		<circle cx="291.8" cy="402.1" r="1.4"/>
		<circle cx="291.8" cy="394.5" r="1.3"/>
		<circle cx="291.8" cy="387.3" r="1.2"/>
	</g>
	<g>
		<circle cx="285.3" cy="440" r="2.2"/>
		<circle cx="285.3" cy="432.4" r="2"/>
		<circle cx="285.3" cy="424.8" r="1.8"/>
		<circle cx="285.3" cy="417.2" r="1.7"/>
		<circle cx="285.3" cy="409.6" r="1.5"/>
		<circle cx="285.3" cy="402.1" r="1.4"/>
		<circle cx="285.3" cy="394.5" r="1.3"/>
		<circle cx="285.3" cy="387.3" r="1.2"/>
	</g>
	<g>
		<circle cx="278.8" cy="440" r="2.2"/>
		<circle cx="278.8" cy="432.4" r="2"/>
		<circle cx="278.8" cy="424.8" r="1.8"/>
		<circle cx="278.8" cy="417.2" r="1.7"/>
		<circle cx="278.8" cy="409.6" r="1.5"/>
		<circle cx="278.8" cy="402.1" r="1.4"/>
		<circle cx="278.8" cy="394.5" r="1.3"/>
		<circle cx="278.8" cy="387.3" r="1.2"/>
	</g>
	<g>
		<circle cx="272.3" cy="440" r="2.2"/>
		<circle cx="272.3" cy="432.4" r="2"/>
		<circle cx="272.3" cy="424.8" r="1.8"/>
		<circle cx="272.3" cy="417.2" r="1.7"/>
		<circle cx="272.3" cy="409.6" r="1.5"/>
		<circle cx="272.3" cy="402.1" r="1.4"/>
		<circle cx="272.3" cy="394.5" r="1.3"/>
		<circle cx="272.3" cy="387.3" r="1.2"/>
	</g>
	<g>
		<circle cx="265.8" cy="440" r="2.2"/>
		<circle cx="265.8" cy="432.4" r="2"/>
		<circle cx="265.8" cy="424.8" r="1.8"/>
		<circle cx="265.8" cy="417.2" r="1.7"/>
		<circle cx="265.8" cy="409.6" r="1.5"/>
		<circle cx="265.8" cy="402.1" r="1.4"/>
		<circle cx="265.8" cy="394.5" r="1.3"/>
		<circle cx="265.8" cy="387.3" r="1.2"/>
	</g>
	<g>
		<circle cx="259.4" cy="432.4" r="2"/>
		<circle cx="259.4" cy="424.8" r="1.8"/>
		<circle cx="259.4" cy="417.2" r="1.7"/>
		<path d="M260.9,409.6c0,0.8-0.7,1.5-1.5,1.5s-1.5-0.7-1.5-1.5s0.7-1.5,1.5-1.5S260.9,408.8,260.9,409.6z"/>
		<circle cx="259.3" cy="402.1" r="1.4"/>
	</g>
	<g>
		<circle cx="252.9" cy="440" r="2.2"/>
		<circle cx="252.9" cy="432.4" r="2"/>
		<circle cx="252.9" cy="424.8" r="1.8"/>
		<circle cx="252.9" cy="417.2" r="1.7"/>
	</g>
	<g>
		<circle cx="246.4" cy="440" r="2.2"/>
		<circle cx="246.4" cy="432.4" r="2"/>
		<circle cx="246.4" cy="424.8" r="1.8"/>
	</g>
	<circle cx="239.9" cy="446.5" r="2.4"/>
	<circle cx="239.9" cy="440" r="2.2"/>
	<circle cx="239.9" cy="432.4" r="2"/>
	<circle cx="239.9" cy="424.8" r="1.8"/>
	<circle cx="233.2" cy="446.5" r="2.4"/>
	<circle cx="233.4" cy="440" r="2.2"/>
	<circle cx="233.4" cy="432.4" r="2"/>
	<circle cx="233.4" cy="424.8" r="1.8"/>
	<path d="M229,446.5c0,1.3-1,2.3-2.3,2.3s-2.3-1-2.3-2.3s1-2.3,2.3-2.3C228,444.2,229,445.2,229,446.5z"/>
	<circle cx="226.9" cy="440" r="2.2"/>
	<circle cx="226.9" cy="432.4" r="2"/>
	<circle cx="226.9" cy="424.8" r="1.8"/>
	<circle cx="220.2" cy="446.5" r="2.4"/>
	<path d="M222.6,440c0,1.2-0.9,2.2-2.2,2.2c-1.2,0-2.2-1-2.2-2.2c0-1.2,1-2.2,2.2-2.2C221.6,437.8,222.6,438.8,222.6,440z"/>
	<path d="M222.4,432.4c0,1.1-0.9,2-2,2s-2-0.9-2-2c0-1.1,0.9-2,2-2S222.4,431.3,222.4,432.4z"/>
	<circle cx="220.4" cy="424.8" r="1.8"/>
	<circle cx="213.7" cy="446.5" r="2.4"/>
	<circle cx="213.9" cy="440" r="2.2"/>
	<circle cx="213.9" cy="432.4" r="2"/>
	<circle cx="213.9" cy="424.8" r="1.8"/>
	<circle cx="213.9" cy="417.2" r="1.7"/>
	<circle cx="213.9" cy="409.6" r="1.5"/>
	<g>
		<circle cx="207.4" cy="440" r="2.2"/>
		<circle cx="207.4" cy="432.4" r="2"/>
		<circle cx="207.4" cy="424.8" r="1.8"/>
		<circle cx="207.4" cy="417.2" r="1.7"/>
		<path d="M208.9,409.6c0,0.8-0.7,1.5-1.5,1.5s-1.5-0.7-1.5-1.5s0.7-1.5,1.5-1.5C208.3,408.1,208.9,408.8,208.9,409.6z"/>
		<circle cx="207.4" cy="402.1" r="1.4"/>
	</g>
	<g>
		<circle cx="200.9" cy="440" r="2.2"/>
		<circle cx="200.9" cy="432.4" r="2"/>
		<circle cx="200.9" cy="424.8" r="1.8"/>
		<circle cx="200.9" cy="417.2" r="1.7"/>
		<path d="M202.5,409.6c0,0.8-0.7,1.5-1.5,1.5s-1.5-0.7-1.5-1.5s0.7-1.5,1.5-1.5C201.8,408.1,202.5,408.8,202.5,409.6z"/>
		<circle cx="200.9" cy="402.1" r="1.4"/>
		<circle cx="200.9" cy="394.5" r="1.3"/>
		<circle cx="200.9" cy="387.3" r="1.2"/>
	</g>
	<g>
		<circle cx="194.5" cy="432.4" r="2"/>
		<circle cx="194.5" cy="424.8" r="1.8"/>
		<circle cx="194.5" cy="417.2" r="1.7"/>
		<path d="M196,409.6c0,0.8-0.7,1.5-1.5,1.5s-1.5-0.7-1.5-1.5s0.7-1.5,1.5-1.5S196,408.8,196,409.6z"/>
		<circle cx="194.5" cy="402.1" r="1.4"/>
		<circle cx="194.5" cy="394.5" r="1.3"/>
		<circle cx="194.5" cy="387.3" r="1.2"/>
	</g>
	<g>
		<circle cx="188" cy="424.8" r="1.8"/>
		<circle cx="188" cy="417.2" r="1.7"/>
		<path d="M189.5,409.6c0,0.8-0.7,1.5-1.5,1.5s-1.5-0.7-1.5-1.5s0.7-1.5,1.5-1.5S189.5,408.8,189.5,409.6z"/>
		<circle cx="188" cy="402.1" r="1.4"/>
		<circle cx="188" cy="394.5" r="1.3"/>
		<circle cx="188" cy="387.3" r="1.2"/>
	</g>
	<g>
		<path d="M183,409.6c0,0.8-0.7,1.5-1.5,1.5s-3-0.7-3-1.5s2.2-1.5,3-1.5S183,408.8,183,409.6z"/>
		<circle cx="181.5" cy="402.1" r="1.4"/>
		<circle cx="181.5" cy="394.5" r="1.3"/>
		<circle cx="181.5" cy="387.3" r="1.2"/>
	</g>
	<path d="M176.5,440c0,1.2-0.9,2.1-2.1,2.1c-1.2,0-2.1-0.9-2.1-2.1s0.9-2.1,2.1-2.1C175.6,437.9,176.5,438.7,176.5,440z"/>
	<path d="M176.4,432.4c0,1.1-0.9,1.9-1.9,1.9c-1.1,0-1.9-0.9-1.9-1.9c0-1.1,0.9-1.9,1.9-1.9C175.5,430.4,176.4,431.3,176.4,432.4z"
		/>
	<circle cx="174.4" cy="424.8" r="1.8"/>
	<path d="M170,440c0,1.2-0.9,2.1-2.1,2.1c-1.2,0-2.1-0.9-2.1-2.1s0.9-2.1,2.1-2.1C169.1,437.9,170,438.7,170,440z"/>
	<circle cx="167.9" cy="432.4" r="2"/>
	<circle cx="167.9" cy="424.8" r="1.8"/>
	<circle cx="161.4" cy="440" r="2.2"/>
	<circle cx="161.4" cy="432.4" r="2"/>
	<circle cx="161.4" cy="424.8" r="1.8"/>
	<circle cx="154.8" cy="440" r="2.2"/>
	<circle cx="154.8" cy="432.4" r="2"/>
	<circle cx="154.8" cy="424.8" r="1.8"/>
	<circle cx="148.3" cy="440" r="2.2"/>
	<path d="M150.2,432.4c0,1.1-0.8,1.9-1.9,1.9s-1.9-0.9-1.9-1.9c0-1.1,0.9-1.9,1.9-1.9C149.4,430.4,150.2,431.3,150.2,432.4z"/>
	<circle cx="148.3" cy="424.8" r="1.8"/>
	<circle cx="141.8" cy="440" r="2.2"/>
	<circle cx="141.8" cy="432.4" r="2"/>
	<circle cx="141.8" cy="424.8" r="1.8"/>
	<circle cx="135.2" cy="440" r="2.2"/>
	<path d="M137.2,432.4c0,1.1-0.8,1.9-1.9,1.9c-1.1,0-1.9-0.9-1.9-1.9c0-1.1,0.9-1.9,1.9-1.9C136.3,430.4,137.2,431.3,137.2,432.4z"
		/>
	<circle cx="135.2" cy="424.8" r="1.8"/>
	<circle cx="135.2" cy="394.5" r="1.3"/>
	<circle cx="135.2" cy="387.3" r="1.2"/>
	<circle cx="128.7" cy="440" r="2.2"/>
	<circle cx="128.7" cy="432.4" r="2"/>
	<circle cx="128.7" cy="424.8" r="1.8"/>
	<circle cx="128.7" cy="402.1" r="1.4"/>
	<circle cx="128.7" cy="394.5" r="1.3"/>
	<circle cx="128.7" cy="387.3" r="1.2"/>
	<circle cx="122.2" cy="440" r="2.2"/>
	<circle cx="122.2" cy="432.4" r="2"/>
	<circle cx="122.2" cy="424.8" r="1.8"/>
	<circle cx="122.2" cy="417.2" r="1.6"/>
	<circle cx="122.2" cy="409.6" r="1.5"/>
	<circle cx="122.2" cy="402.1" r="1.4"/>
	<circle cx="122.2" cy="394.5" r="1.3"/>
	<circle cx="122.2" cy="387.3" r="1.2"/>
	<path d="M117.7,440c0,1.2-0.9,2.1-2.1,2.1s-2.1-0.9-2.1-2.1s0.9-2.1,2.1-2.1C116.8,437.9,117.7,438.8,117.7,440z"/>
	<circle cx="115.6" cy="432.4" r="2"/>
	<circle cx="115.6" cy="424.8" r="1.8"/>
	<circle cx="115.6" cy="417.2" r="1.7"/>
	<circle cx="115.6" cy="409.6" r="1.5"/>
	<circle cx="115.6" cy="402.1" r="1.4"/>
	<circle cx="115.6" cy="394.5" r="1.3"/>
	<circle cx="115.6" cy="387.3" r="1.2"/>
	<circle cx="109.1" cy="440" r="2.2"/>
	<circle cx="109.1" cy="432.4" r="2"/>
	<circle cx="109.1" cy="424.8" r="1.8"/>
	<circle cx="109.1" cy="417.2" r="1.7"/>
	<circle cx="109.1" cy="409.6" r="1.5"/>
	<circle cx="109.1" cy="402.1" r="1.4"/>
	<circle cx="109.1" cy="394.5" r="1.3"/>
	<circle cx="109.1" cy="387.3" r="1.2"/>
	<circle cx="102.6" cy="440" r="2.2"/>
	<circle cx="102.6" cy="432.4" r="2"/>
	<circle cx="102.6" cy="424.8" r="1.8"/>
	<circle cx="102.6" cy="417.2" r="1.7"/>
	<circle cx="102.6" cy="409.6" r="1.5"/>
	<circle cx="102.6" cy="402.1" r="1.4"/>
	<circle cx="102.6" cy="394.5" r="1.3"/>
	<circle cx="102.6" cy="387.3" r="1.2"/>
	<circle cx="96" cy="440" r="2.2"/>
	<circle cx="96" cy="432.4" r="2"/>
	<circle cx="96" cy="424.8" r="1.8"/>
	<circle cx="96" cy="417.2" r="1.7"/>
	<circle cx="96" cy="409.6" r="1.5"/>
	<circle cx="96" cy="402.1" r="1.4"/>
	<circle cx="89.5" cy="440" r="2.2"/>
	<circle cx="89.5" cy="432.4" r="2"/>
	<circle cx="89.5" cy="424.8" r="1.8"/>
	<circle cx="89.5" cy="417.2" r="1.7"/>
	<circle cx="89.5" cy="409.6" r="1.5"/>
	<circle cx="82.9" cy="440" r="2.2"/>
	<circle cx="82.9" cy="432.4" r="2"/>
	<circle cx="82.9" cy="424.8" r="1.8"/>
	<circle cx="76.4" cy="440" r="2.2"/>
	<circle cx="76.4" cy="432.4" r="1.9"/>
</g>
</svg>
